<?xml version="1.0" encoding="iso-8859-1"?>
<!-- Generator: Adobe Illustrator 19.0.0, SVG Export Plug-In . SVG Version: 6.00 Build 0)  -->
<svg version="1.1" id="Capa_1" xmlns="http://www.w3.org/2000/svg" xmlns:xlink="http://www.w3.org/1999/xlink" x="0px" y="0px"
	 viewBox="0 0 511.997 511.997" style="enable-background:new 0 0 511.997 511.997;" xml:space="preserve">
<path style="fill:#FFA511;" d="M290.128,375.463h-68.266c-18.85,0-34.133,15.283-34.133,34.133v59.732h25.6v-34.133
	c0-4.71,3.823-8.533,8.533-8.533s8.533,3.823,8.533,8.533v34.133h51.199v-34.133c0-4.71,3.823-8.533,8.533-8.533
	s8.533,3.823,8.533,8.533v34.133h25.6v-59.732C324.261,390.746,308.978,375.463,290.128,375.463z"/>
<path style="fill:#4DB5FF;" d="M110.931,375.463H42.666c-18.85,0-34.133,15.283-34.133,34.133v59.732h25.6v-34.133
	c0-4.71,3.823-8.533,8.533-8.533s8.533,3.823,8.533,8.533v34.133h51.199v-34.133c0-4.71,3.823-8.533,8.533-8.533
	s8.533,3.823,8.533,8.533v34.133h25.6v-59.732C145.064,390.746,129.781,375.463,110.931,375.463z"/>
<path style="fill:#EF2648;" d="M469.326,375.463H401.06c-18.85,0-34.133,15.283-34.133,34.133v59.732h25.6v-34.133
	c0-4.71,3.823-8.533,8.533-8.533s8.533,3.823,8.533,8.533v34.133h51.199v-34.133c0-4.71,3.823-8.533,8.533-8.533
	c4.71,0,8.533,3.823,8.533,8.533v34.133h25.6v-59.732C503.458,390.746,488.175,375.463,469.326,375.463z"/>
<path style="fill:#FFA511;" d="M469.326,324.264v-34.133H401.06v34.133l-34.133-17.066l18.867-37.734
	c9.352-18.705,28.475-30.532,49.399-30.532l0,0c20.923,0,40.046,11.818,49.399,30.532l18.867,37.734L469.326,324.264z"/>
<g>
	<path style="fill:#FFD4B0;" d="M469.326,290.131v34.133c0,18.85-15.283,34.133-34.133,34.133l0,0
		c-18.85,0-34.133-15.283-34.133-34.133v-34.133H469.326z"/>
	<path style="fill:#FFD4B0;" d="M221.863,290.131v34.133c0,18.85,15.283,34.133,34.133,34.133l0,0
		c18.85,0,34.133-15.283,34.133-34.133v-34.133H221.863z"/>
</g>
<path style="fill:#235087;" d="M221.863,290.131l-17.066-34.133h51.199c18.85,0,34.133,15.283,34.133,34.133H221.863z"/>
<path style="fill:#FFD4B0;" d="M110.931,290.131v34.133c0,18.85-15.283,34.133-34.133,34.133l0,0
	c-18.85,0-34.133-15.283-34.133-34.133v-34.133H110.931z"/>
<path style="fill:#FFA511;" d="M110.931,290.131H42.666v-17.066c0-9.429,7.637-17.066,17.066-17.066h34.133
	c9.429,0,17.066,7.637,17.066,17.066V290.131z"/>
<path style="fill:#B7E5FF;" d="M503.458,110.934c0.026-37.7-30.515-68.291-68.214-68.317c-37.708-0.017-68.291,30.523-68.317,68.223
	c-0.026,30.651,20.394,57.565,49.919,65.799l18.346,36.693l18.346-36.693C483.03,168.414,503.433,141.56,503.458,110.934z"/>
<path style="fill:#99C8E0;" d="M456.918,46.261c31.027,21.376,38.843,63.862,17.467,94.889
	c-17.254,25.036-48.998,35.635-77.831,25.984c6.195,4.267,13.047,7.475,20.292,9.506l18.346,36.693l18.346-36.693
	c36.292-10.086,57.531-47.675,47.453-83.967c-6.067-21.819-22.57-39.201-44.04-46.403L456.918,46.261z"/>
<path style="fill:#B7E5FF;" d="M324.261,110.934c0.026-37.7-30.515-68.291-68.214-68.317s-68.291,30.523-68.317,68.223
	c-0.026,30.651,20.394,57.565,49.919,65.799l18.346,36.693l18.346-36.693C303.833,168.414,324.236,141.56,324.261,110.934z"/>
<path style="fill:#99C8E0;" d="M277.721,46.261c31.027,21.376,38.843,63.862,17.467,94.889
	c-17.254,25.036-48.998,35.635-77.831,25.984c6.195,4.267,13.047,7.475,20.292,9.506l18.346,36.693l18.346-36.693
	c36.292-10.086,57.531-47.675,47.453-83.967c-6.067-21.819-22.57-39.201-44.04-46.403L277.721,46.261z"/>
<path style="fill:#B7E5FF;" d="M145.064,110.934c0.026-37.7-30.515-68.291-68.214-68.317S8.559,73.141,8.533,110.84
	c-0.026,30.651,20.394,57.565,49.919,65.799l18.346,36.693l18.346-36.693C124.636,168.414,145.039,141.56,145.064,110.934z"/>
<g>
	<path style="fill:#EF2648;" d="M435.193,157.133l-35.899-35.899c-10.393-10.402-10.393-27.264,0-37.666
		c9.856-9.48,25.216-10.18,35.899-1.647c10.675-8.55,26.035-7.859,35.899,1.613c10.393,10.402,10.393,27.264,0,37.666
		L435.193,157.133z M418.126,92.835c-5.282,0-9.566,4.275-9.574,9.557c0,2.543,1.007,4.975,2.807,6.775l23.833,23.833l23.833-23.833
		c3.738-3.738,3.738-9.796,0-13.534c-3.738-3.738-9.796-3.738-13.534,0l0,0l-10.3,10.3l-10.3-10.3
		C423.101,93.842,420.661,92.835,418.126,92.835z"/>
	<path style="fill:#EF2648;" d="M255.996,153.6c-23.56,0-42.666-19.106-42.666-42.666s19.106-42.666,42.666-42.666
		s42.666,19.106,42.666,42.666C298.636,134.486,279.547,153.575,255.996,153.6z M255.996,85.335c-14.139,0-25.6,11.46-25.6,25.6
		s11.46,25.6,25.6,25.6s25.6-11.46,25.6-25.6S270.135,85.335,255.996,85.335z"/>
	
		<rect x="219.785" y="102.398" transform="matrix(-0.7071 0.7071 -0.7071 -0.7071 515.4369 8.3616)" style="fill:#EF2648;" width="72.403" height="17.066"/>
	<rect x="42.666" y="102.401" style="fill:#EF2648;" width="68.266" height="17.066"/>
</g>
<path style="fill:#99C8E0;" d="M98.524,46.261c31.027,21.376,38.843,63.862,17.467,94.889
	c-17.254,25.036-48.998,35.635-77.831,25.984c6.195,4.267,13.047,7.475,20.292,9.506l18.346,36.693l18.346-36.693
	c36.292-10.086,57.531-47.675,47.453-83.967c-6.067-21.819-22.57-39.201-44.04-46.403L98.524,46.261z"/>
<path style="fill:#EDC4A2;" d="M102.398,315.731c0.026,18.824-15.215,34.107-34.03,34.133c-6.997,0.009-13.824-2.133-19.567-6.144
	c10.786,15.462,32.059,19.259,47.521,8.473c9.131-6.366,14.583-16.793,14.609-27.929v-34.133h-8.533V315.731z"/>
<path style="fill:#F08015;" d="M100.862,257.534c1.007,2.193,1.527,4.582,1.536,6.997v25.6h8.533v-17.066
	C110.914,266.366,106.981,260.291,100.862,257.534z"/>
<path style="fill:#EDC4A2;" d="M281.595,290.131v25.6c0.026,18.824-15.215,34.107-34.03,34.133
	c-6.997,0.009-13.824-2.133-19.567-6.144c10.786,15.462,32.059,19.259,47.521,8.473c9.13-6.366,14.583-16.793,14.609-27.929v-34.133
	H281.595z"/>
<path style="fill:#163768;" d="M281.595,290.131h8.533c0-11.17-5.487-21.632-14.669-27.997c3.994,5.709,6.135,12.501,6.135,19.464
	V290.131z"/>
<path style="fill:#EDC4A2;" d="M460.792,290.131v25.6c0.026,18.824-15.215,34.107-34.03,34.133
	c-6.997,0.009-13.824-2.133-19.567-6.144c10.786,15.462,32.059,19.259,47.521,8.473c9.131-6.366,14.583-16.793,14.609-27.929
	v-34.133H460.792z"/>
<g>
	<path style="fill:#F08015;" d="M368.557,303.938l-1.63,3.26l34.133,17.066v-9.975C389.753,312.548,378.788,309.058,368.557,303.938
		z"/>
	<path style="fill:#F08015;" d="M469.326,303.153v21.111l34.133-17.066l-10.393-20.778
		C485.923,293.015,477.935,298.639,469.326,303.153z"/>
	<path style="fill:#F08015;" d="M187.73,469.328h25.6v-9.011c-8.533,0.282-17.066,0.478-25.6,0.478V469.328z"/>
	<path style="fill:#F08015;" d="M230.396,469.328h51.199v-14.361c-16.896,2.108-33.962,3.635-51.199,4.599V469.328z"/>
	<path style="fill:#F08015;" d="M298.662,469.328h25.6v-20.949c-8.482,1.553-17.015,2.978-25.6,4.267V469.328z"/>
</g>
<g>
	<path style="fill:#3596D8;" d="M119.465,469.328h25.6v-9.762c-8.576-0.486-17.109-1.118-25.6-1.894V469.328z"/>
	<path style="fill:#3596D8;" d="M8.533,469.328h25.6v-24.285c-8.593-1.783-17.118-3.746-25.6-5.82V469.328z"/>
	<path style="fill:#3596D8;" d="M51.199,469.328h51.199V455.94c-17.246-1.954-34.312-4.471-51.199-7.56V469.328z"/>
</g>
<g>
	<path style="fill:#B20D24;" d="M366.927,469.328h25.6v-34.133c0.026-0.973,0.222-1.929,0.572-2.833
		c-8.653,2.458-17.391,4.71-26.171,6.827V469.328z"/>
	<path style="fill:#B20D24;" d="M409.593,435.195v34.133h51.199v-34.133c0-4.71,3.823-8.533,8.533-8.533
		c4.71,0,8.533,3.823,8.533,8.533v34.133h25.6v-59.732c-0.034-5.692-1.502-11.281-4.267-16.256
		c-30.19,13.773-61.26,25.523-93.012,35.157C408.313,430.067,409.576,432.55,409.593,435.195z"/>
</g>
<path d="M298.662,324.264v-34.133c-0.026-23.552-19.114-42.64-42.666-42.666h-51.199c-4.71,0-8.533,3.814-8.533,8.533
	c0,1.323,0.307,2.637,0.896,3.814l16.17,32.332v32.119c0,23.56,19.106,42.666,42.666,42.666S298.662,347.833,298.662,324.264z
	 M255.996,264.532c10.846,0.017,20.514,6.844,24.14,17.066h-53l-8.533-17.066H255.996z M281.595,324.264
	c0,14.139-11.46,25.6-25.6,25.6s-25.6-11.46-25.6-25.6v-25.6h51.199V324.264z"/>
<path d="M290.128,366.93h-68.266c-23.552,0.026-42.64,19.114-42.666,42.666v59.732c0,4.71,3.823,8.533,8.533,8.533h136.531
	c4.71,0,8.533-3.823,8.533-8.533v-59.732C332.769,386.044,313.68,366.964,290.128,366.93z M315.728,460.795h-17.066v-25.6
	c0-4.71-3.823-8.533-8.533-8.533s-8.533,3.823-8.533,8.533v25.6h-51.199v-25.6c0-4.71-3.823-8.533-8.533-8.533
	s-8.533,3.823-8.533,8.533v25.6h-17.066v-51.199c0-14.14,11.46-25.6,25.6-25.6h68.266c14.14,0,25.6,11.46,25.6,25.6V460.795z"/>
<path d="M119.465,324.264v-51.199c0-14.139-11.46-25.6-25.6-25.6H59.732c-14.139,0-25.6,11.46-25.6,25.6v51.199
	c0,23.56,19.106,42.666,42.666,42.666S119.465,347.833,119.465,324.264z M51.199,273.065c0-4.71,3.823-8.533,8.533-8.533h34.133
	c4.71,0,8.533,3.823,8.533,8.533v8.533H51.199V273.065z M102.398,324.264c0,14.139-11.46,25.6-25.6,25.6s-25.6-11.46-25.6-25.6
	v-25.6h51.199V324.264z"/>
<path d="M110.931,366.93H42.666C19.114,366.956,0.026,386.044,0,409.596v59.732c0,4.71,3.823,8.533,8.533,8.533h136.531
	c4.71,0,8.533-3.823,8.533-8.533v-59.732C153.572,386.044,134.483,366.964,110.931,366.93z M136.531,460.795h-17.066v-25.6
	c0-4.71-3.823-8.533-8.533-8.533s-8.533,3.823-8.533,8.533v25.6H51.199v-25.6c0-4.71-3.823-8.533-8.533-8.533
	s-8.533,3.823-8.533,8.533v25.6H17.066v-51.199c0-14.14,11.46-25.6,25.6-25.6h68.266c14.139,0,25.6,11.46,25.6,25.6V460.795z"/>
<path d="M477.295,329.819l29.977-14.942c4.215-2.108,5.931-7.228,3.823-11.443c0,0,0,0,0-0.009l-18.867-37.734
	c-15.752-31.496-54.058-44.27-85.554-28.518c-12.339,6.169-22.348,16.179-28.518,28.518l-18.867,37.734
	c-2.108,4.215-0.401,9.344,3.814,11.452c0,0,0,0,0.009,0l29.977,14.984c2.927,23.253,24.158,39.731,47.41,36.795
	c19.234-2.423,34.372-17.57,36.795-36.795L477.295,329.819z M393.423,273.278c11.537-23.065,39.594-32.418,62.659-20.881
	c9.037,4.523,16.358,11.844,20.881,20.881l15.044,30.105l-14.148,7.074v-20.326c0-4.71-3.823-8.533-8.533-8.533H401.06
	c-4.71,0-8.533,3.823-8.533,8.533v20.326l-14.148-7.074L393.423,273.278z M435.193,349.864c-14.139,0-25.6-11.46-25.6-25.6v-25.6
	h51.199v25.6C460.792,338.403,449.332,349.864,435.193,349.864z"/>
<path d="M469.326,366.93H401.06c-23.552,0.026-42.64,19.114-42.666,42.666v59.732c0,4.71,3.823,8.533,8.533,8.533h136.531
	c4.71,0,8.533-3.823,8.533-8.533v-59.732C511.966,386.044,492.877,366.964,469.326,366.93z M494.925,460.795h-17.066v-25.6
	c0-4.71-3.823-8.533-8.533-8.533c-4.71,0-8.533,3.823-8.533,8.533v25.6h-51.199v-25.6c0-4.71-3.823-8.533-8.533-8.533
	s-8.533,3.823-8.533,8.533v25.6H375.46v-51.199c0-14.14,11.46-25.6,25.6-25.6h68.266c14.139,0,25.6,11.46,25.6,25.6V460.795z"/>
<path d="M76.799,34.135C34.38,34.229,0.077,68.686,0.162,111.105c0.068,32.904,21.094,62.113,52.283,72.617l16.717,33.433
	c2.099,4.215,7.228,5.931,11.443,3.831c1.655-0.828,3.004-2.167,3.831-3.831l16.717-33.433
	c40.191-13.542,61.806-57.104,48.264-97.295C138.912,55.238,109.703,34.212,76.799,34.135z M92.858,168.414
	c-2.321,0.649-4.267,2.244-5.342,4.403l-10.718,21.435l-10.718-21.435c-1.075-2.15-3.021-3.755-5.342-4.403
	c-31.778-8.866-50.346-41.821-41.471-73.59s41.821-50.346,73.59-41.471s50.346,41.821,41.471,73.59
	C128.715,147.072,112.988,162.799,92.858,168.414z"/>
<path d="M255.996,34.135c-42.419,0.094-76.722,34.551-76.637,76.961c0.068,32.904,21.094,62.113,52.283,72.617l16.717,33.433
	c2.099,4.215,7.228,5.931,11.443,3.831c1.655-0.828,3.004-2.167,3.831-3.831l16.717-33.433
	c40.191-13.542,61.806-57.104,48.264-97.295C318.109,55.238,288.9,34.212,255.996,34.135z M272.055,168.414
	c-2.321,0.649-4.267,2.244-5.342,4.403l-10.718,21.435l-10.718-21.435c-1.075-2.159-3.021-3.755-5.342-4.403
	c-31.778-8.866-50.346-41.821-41.471-73.59s41.821-50.346,73.59-41.471s50.346,41.821,41.471,73.59
	C307.912,147.072,292.185,162.799,272.055,168.414z"/>
<path d="M435.193,34.135c-42.418,0.094-76.722,34.551-76.637,76.961c0.068,32.904,21.094,62.113,52.283,72.617l16.717,33.433
	c2.099,4.215,7.228,5.931,11.443,3.831c1.655-0.828,3.004-2.167,3.831-3.831l16.717-33.433
	c40.191-13.542,61.806-57.104,48.264-97.295C497.306,55.238,468.097,34.212,435.193,34.135z M451.252,168.414
	c-2.321,0.649-4.267,2.244-5.342,4.403l-10.718,21.435l-10.718-21.435c-1.075-2.159-3.021-3.755-5.342-4.403
	c-31.778-8.866-50.346-41.821-41.471-73.59c8.866-31.778,41.821-50.346,73.59-41.471s50.346,41.821,41.471,73.59
	C487.109,147.072,471.382,162.799,451.252,168.414z"/>
<g>
</g>
<g>
</g>
<g>
</g>
<g>
</g>
<g>
</g>
<g>
</g>
<g>
</g>
<g>
</g>
<g>
</g>
<g>
</g>
<g>
</g>
<g>
</g>
<g>
</g>
<g>
</g>
<g>
</g>
</svg>
